<svg width="39" height="35" viewBox="0 0 39 35" fill="none" xmlns="http://www.w3.org/2000/svg">
<path d="M17.9752 7.69035H9.95012C9.09877 7.69035 8.28228 7.98579 7.68028 8.51167C7.07828 9.03756 6.74008 9.75081 6.74008 10.4945V25.9175C6.74008 26.6612 7.07828 27.3745 7.68028 27.9003C8.28228 28.4262 9.09877 28.7217 9.95012 28.7217H27.6054C28.4567 28.7217 29.2732 28.4262 29.8752 27.9003C30.4772 27.3745 30.8154 26.6612 30.8154 25.9175V18.907M28.5459 5.7078C28.842 5.43997 29.1962 5.22634 29.5879 5.07938C29.9795 4.93241 30.4007 4.85506 30.8269 4.85182C31.2532 4.84859 31.6759 4.91954 32.0704 5.06053C32.4649 5.20153 32.8233 5.40975 33.1247 5.67304C33.4261 5.93633 33.6644 6.24942 33.8258 6.59404C33.9872 6.93867 34.0685 7.30792 34.0648 7.68026C34.0611 8.05259 33.9725 8.42056 33.8043 8.76268C33.636 9.1048 33.3915 9.41422 33.0849 9.6729L19.3042 21.7112H14.7652V17.7461L28.5459 5.7078Z" stroke="#27272A" stroke-width="3" stroke-linecap="round" stroke-linejoin="round"/>
</svg>
